# xmcd
#
# Track frame offsets:
# 150
# 24011
# 38175
# 53880
# 74253
# 92380
# 105951
# 114204
# 147493
# 167386
#
# Disc length: 2642 seconds
#
# Revision: 1
# Processed by: cddbd v1.5.2PL0 Copyright (c) Steve Scherf et al.
# Submitted via: CedeCatalogueitor 2.6.0.6 http://personales.ya.com/cdcatalogueitor
#
DISCID=6e0a500a
DTITLE=Templeton - Exposición Universal
DYEAR=1900
DGENRE=
TTITLE0=La La La
TTITLE1=Las Casas De Verano E Invierno
TTITLE2=La Rana
TTITLE3=Camino De La Amargura
TTITLE4=Brasil
TTITLE5=Plan C
TTITLE6=La Tierra De Los Pajaros
TTITLE7=Marcha Nupcial
TTITLE8=Sofá Cama
TTITLE9=Una Cosa Es Lo Que Ocurra
EXTD=
EXTT0=
EXTT1=
EXTT2=
EXTT3=
EXTT4=
EXTT5=
EXTT6=
EXTT7=
EXTT8=
EXTT9=
PLAYORDER=
